<?xml version="1.0" encoding="UTF-8"?>
<!DOCTYPE svg PUBLIC "-//W3C//DTD SVG 1.1//EN" "http://www.w3.org/Graphics/SVG/1.1/DTD/svg11.dtd">
<svg xmlns="http://www.w3.org/2000/svg" version="1.1" width="1280px" height="934px" style="shape-rendering:geometricPrecision; text-rendering:geometricPrecision; image-rendering:optimizeQuality; fill-rule:evenodd; clip-rule:evenodd" xmlns:xlink="http://www.w3.org/1999/xlink">
<g><path style="opacity:1" fill="#fefefe" d="M -0.5,-0.5 C 426.167,-0.5 852.833,-0.5 1279.5,-0.5C 1279.5,310.833 1279.5,622.167 1279.5,933.5C 852.833,933.5 426.167,933.5 -0.5,933.5C -0.5,622.167 -0.5,310.833 -0.5,-0.5 Z"/></g>
<g><path style="opacity:1" fill="#cccccc" d="M 1189.5,172.5 C 1183.37,165.696 1176.37,160.029 1168.5,155.5C 1164.44,153.136 1160.11,151.136 1155.5,149.5C 1151.81,148.223 1148.14,147.223 1144.5,146.5C 1146.25,145.019 1147.41,143.019 1148,140.5C 1162.13,95.428 1172.13,49.428 1178,2.5C 1179.39,1.44636 1180.89,1.27969 1182.5,2C 1193.88,18.5873 1205.38,35.0873 1217,51.5C 1211.76,92.7879 1202.59,133.121 1189.5,172.5 Z"/></g>
<g><path style="opacity:1" fill="#cdcdcd" d="M 389.5,318.5 C 378.167,318.5 366.833,318.5 355.5,318.5C 405.712,270.781 460.378,228.948 519.5,193C 625.583,129.675 738.583,82.1752 858.5,50.5C 860.167,50.8333 861.833,51.1667 863.5,51.5C 773.961,78.8355 688.295,115.002 606.5,160C 528.095,204.579 455.761,257.413 389.5,318.5 Z"/></g>
<g><path style="opacity:1" fill="#ffba7e" d="M 1142.5,146.5 C 1113.33,157.809 1101.5,179.142 1107,210.5C 1116.76,237.889 1136.26,250.389 1165.5,248C 1183.27,244.45 1196.27,234.617 1204.5,218.5C 1205.36,217.575 1206.36,216.908 1207.5,216.5C 1208.77,223.296 1208.77,229.963 1207.5,236.5C 1207.66,234.801 1207.49,233.134 1207,231.5C 1206.67,233.833 1206.33,236.167 1206,238.5C 1205.67,237.833 1205.33,237.167 1205,236.5C 1186.75,256.834 1164.25,263.334 1137.5,256C 1105.83,242.477 1091.83,218.644 1095.5,184.5C 1098.52,171.953 1104.52,161.119 1113.5,152C 1111.98,150.991 1110.31,150.491 1108.5,150.5C 1119.36,145.708 1130.69,144.374 1142.5,146.5 Z"/></g>
<g><path style="opacity:1" fill="#fec490" d="M 1142.5,146.5 C 1143.17,146.5 1143.83,146.5 1144.5,146.5C 1148.14,147.223 1151.81,148.223 1155.5,149.5C 1124.52,153.992 1109.69,171.992 1111,203.5C 1116.4,228.232 1131.73,241.565 1157,243.5C 1182.66,240.992 1198.5,227.325 1204.5,202.5C 1206.25,206.889 1207.25,211.556 1207.5,216.5C 1206.36,216.908 1205.36,217.575 1204.5,218.5C 1196.27,234.617 1183.27,244.45 1165.5,248C 1136.26,250.389 1116.76,237.889 1107,210.5C 1101.5,179.142 1113.33,157.809 1142.5,146.5 Z"/></g>
<g><path style="opacity:1" fill="#ffb573" d="M 1108.5,150.5 C 1110.31,150.491 1111.98,150.991 1113.5,152C 1104.52,161.119 1098.52,171.953 1095.5,184.5C 1091.83,218.644 1105.83,242.477 1137.5,256C 1164.25,263.334 1186.75,256.834 1205,236.5C 1205.33,237.167 1205.67,237.833 1206,238.5C 1206.33,236.167 1206.67,233.833 1207,231.5C 1207.49,233.134 1207.66,234.801 1207.5,236.5C 1207.78,238.415 1207.45,240.081 1206.5,241.5C 1193.83,255.91 1177.66,263.243 1158,263.5C 1126.49,262.496 1104.99,247.329 1093.5,218C 1086.83,195.038 1090.49,174.038 1104.5,155C 1104.38,154.03 1104.38,153.197 1104.5,152.5C 1105.51,151.326 1106.85,150.66 1108.5,150.5 Z"/></g>
<g><path style="opacity:1" fill="#fecb9d" d="M 1155.5,149.5 C 1160.11,151.136 1164.44,153.136 1168.5,155.5C 1150,152.946 1134.84,158.946 1123,173.5C 1111.23,195.891 1115.06,215.058 1134.5,231C 1157.21,242.695 1176.38,238.528 1192,218.5C 1196.52,209.24 1199.02,199.573 1199.5,189.5C 1202.12,193.343 1203.79,197.676 1204.5,202.5C 1198.5,227.325 1182.66,240.992 1157,243.5C 1131.73,241.565 1116.4,228.232 1111,203.5C 1109.69,171.992 1124.52,153.992 1155.5,149.5 Z"/></g>
<g><path style="opacity:1" fill="#fed1a9" d="M 1168.5,155.5 C 1176.37,160.029 1183.37,165.696 1189.5,172.5C 1193.6,177.701 1196.93,183.367 1199.5,189.5C 1199.02,199.573 1196.52,209.24 1192,218.5C 1176.38,238.528 1157.21,242.695 1134.5,231C 1115.06,215.058 1111.23,195.891 1123,173.5C 1134.84,158.946 1150,152.946 1168.5,155.5 Z"/></g>
<g><path style="opacity:1" fill="#ffb06a" d="M 1104.5,152.5 C 1104.38,153.197 1104.38,154.03 1104.5,155C 1090.49,174.038 1086.83,195.038 1093.5,218C 1104.99,247.329 1126.49,262.496 1158,263.5C 1177.66,263.243 1193.83,255.91 1206.5,241.5C 1206.42,247.586 1205.09,253.253 1202.5,258.5C 1201.78,258.217 1200.95,257.884 1200,257.5C 1174.69,273.098 1148.53,274.598 1121.5,262C 1088.47,240.73 1076.97,210.897 1087,172.5C 1088.12,169.145 1089.62,165.978 1091.5,163C 1090.96,162.283 1090.29,161.783 1089.5,161.5C 1093.71,157.315 1098.71,154.315 1104.5,152.5 Z"/></g>
<g><path style="opacity:1" fill="#ffd8b6" d="M 1152.5,160.5 C 1176.58,160.232 1190.25,172.232 1193.5,196.5C 1188.13,226.357 1170.8,237.19 1141.5,229C 1120.78,215.455 1116.28,197.622 1128,175.5C 1134.47,167.524 1142.64,162.524 1152.5,160.5 Z"/></g>
<g><path style="opacity:1" fill="#ffab61" d="M 1089.5,161.5 C 1090.29,161.783 1090.96,162.283 1091.5,163C 1089.62,165.978 1088.12,169.145 1087,172.5C 1076.97,210.897 1088.47,240.73 1121.5,262C 1148.53,274.598 1174.69,273.098 1200,257.5C 1200.95,257.884 1201.78,258.217 1202.5,258.5C 1201.19,263.795 1198.85,268.462 1195.5,272.5C 1195.76,271.022 1195.43,269.689 1194.5,268.5C 1163.48,282.784 1134.14,279.95 1106.5,260C 1080.25,237.17 1071.25,208.836 1079.5,175C 1079.35,173.791 1079.01,172.625 1078.5,171.5C 1081.54,167.456 1085.21,164.123 1089.5,161.5 Z"/></g>
<g><path style="opacity:1" fill="#ffdfc2" d="M 1154.5,166.5 C 1179.74,168.913 1189.91,182.58 1185,207.5C 1174.36,226.623 1159.2,231.123 1139.5,221C 1125.68,208.025 1123.85,193.525 1134,177.5C 1139.59,171.293 1146.42,167.626 1154.5,166.5 Z"/></g>
<g><path style="opacity:1" fill="#ffe5ce" d="M 1154.5,171.5 C 1174.48,172.976 1183.31,183.643 1181,203.5C 1172.91,221.086 1160.08,225.586 1142.5,217C 1131.02,206.062 1129.52,193.896 1138,180.5C 1142.75,175.868 1148.25,172.868 1154.5,171.5 Z"/></g>
<g><path style="opacity:1" fill="#ffecdb" d="M 1153.5,177.5 C 1165.79,176.637 1173.45,182.137 1176.5,194C 1175.29,210.85 1166.29,217.517 1149.5,214C 1138.65,207.436 1135.81,198.269 1141,186.5C 1144.31,182.115 1148.47,179.115 1153.5,177.5 Z"/></g>
<g><path style="opacity:1" fill="#ffa656" d="M 1078.5,171.5 C 1079.01,172.625 1079.35,173.791 1079.5,175C 1071.25,208.836 1080.25,237.17 1106.5,260C 1134.14,279.95 1163.48,282.784 1194.5,268.5C 1195.43,269.689 1195.76,271.022 1195.5,272.5C 1193.94,276.392 1191.6,279.725 1188.5,282.5C 1187.66,282.389 1186.66,282.056 1185.5,281.5C 1140.96,293.294 1105.79,280.294 1080,242.5C 1071.55,227.317 1067.38,211.317 1067.5,194.5C 1066.5,194.5 1065.5,194.5 1064.5,194.5C 1067.9,186.028 1072.57,178.361 1078.5,171.5 Z"/></g>
<g><path style="opacity:1" fill="#fff6ee" d="M 1156.5,185.5 C 1168.05,188.411 1170.72,194.745 1164.5,204.5C 1158.48,208.805 1152.98,208.138 1148,202.5C 1145.04,193.753 1147.87,188.086 1156.5,185.5 Z"/></g>
<g><path style="opacity:1" fill="#ffa04c" d="M 1064.5,194.5 C 1065.5,194.5 1066.5,194.5 1067.5,194.5C 1067.38,211.317 1071.55,227.317 1080,242.5C 1105.79,280.294 1140.96,293.294 1185.5,281.5C 1186.66,282.056 1187.66,282.389 1188.5,282.5C 1184.05,288.4 1178.72,293.4 1172.5,297.5C 1172.5,296.5 1172.5,295.5 1172.5,294.5C 1124.61,298.642 1089.44,279.642 1067,237.5C 1064.45,231.697 1062.62,225.697 1061.5,219.5C 1060.5,219.5 1059.5,219.5 1058.5,219.5C 1059.03,210.79 1061.03,202.457 1064.5,194.5 Z"/></g>
<g><path style="opacity:1" fill="#fe973b" d="M 1058.5,219.5 C 1059.5,219.5 1060.5,219.5 1061.5,219.5C 1062.62,225.697 1064.45,231.697 1067,237.5C 1089.44,279.642 1124.61,298.642 1172.5,294.5C 1172.5,295.5 1172.5,296.5 1172.5,297.5C 1161.07,305.308 1148.41,309.308 1134.5,309.5C 1116.46,309.476 1100.46,303.81 1086.5,292.5C 1065.78,272.697 1056.45,248.364 1058.5,219.5 Z"/></g>
<g><path style="opacity:1" fill="#cccccc" d="M 1086.5,292.5 C 1100.46,303.81 1116.46,309.476 1134.5,309.5C 1117.05,343.566 1098.72,377.066 1079.5,410C 1141.67,410.167 1203.67,410.667 1265.5,411.5C 1203.16,411.167 1140.83,411.5 1078.5,412.5C 1058.88,443.651 1038.88,473.985 1018.5,503.5C 1017.81,504.774 1016.98,504.774 1016,503.5C 1009.67,512.658 1003.17,521.658 996.5,530.5C 977.79,555.235 958.123,579.235 937.5,602.5C 936.662,602.842 936.328,603.508 936.5,604.5C 935.12,603.294 933.953,603.627 933,605.5C 837.365,713.816 724.531,799.316 594.5,862C 582.635,866.619 570.968,871.619 559.5,877C 529.515,887.99 499.515,898.99 469.5,910C 435.154,920.335 400.154,927.335 364.5,931C 324.604,934.928 285.271,931.928 246.5,922C 179.85,901.344 141.016,856.511 130,787.5C 128.429,766.197 128.096,744.863 129,723.5C 135.056,680.735 145.889,639.402 161.5,599.5C 167.833,599.5 174.167,599.5 180.5,599.5C 165.957,632.895 154.457,667.562 146,703.5C 137.899,742.701 138.899,781.701 149,820.5C 167.291,871.124 202.457,903.291 254.5,917C 290.749,925.846 327.415,927.846 364.5,923C 391.267,919.724 417.601,914.391 443.5,907C 492.721,891.131 540.387,871.798 586.5,849C 651.141,814.344 710.807,772.677 765.5,724C 829.045,666.823 886.378,604.156 937.5,536C 936.584,535.722 935.918,535.222 935.5,534.5C 936.822,534.67 937.989,534.337 939,533.5C 968.158,494.519 995.325,454.186 1020.5,412.5C 1020.83,412.5 1021.17,412.5 1021.5,412.5C 1044.7,373.44 1066.37,333.44 1086.5,292.5 Z"/></g>
<g><path style="opacity:1" fill="#010101" d="M 355.5,318.5 C 366.833,318.5 378.167,318.5 389.5,318.5C 413.999,320.492 429.165,333.492 435,357.5C 435.582,364.852 435.415,372.185 434.5,379.5C 434.5,390.167 434.5,400.833 434.5,411.5C 465.005,411.169 495.338,411.502 525.5,412.5C 506.522,416.655 491.022,426.321 479,441.5C 467.347,464.052 471.18,483.552 490.5,500C 508.268,511.372 527.601,519.039 548.5,523C 565.87,526.117 583.203,529.451 600.5,533C 608.484,534.985 615.65,538.485 622,543.5C 626.231,549.254 626.564,555.254 623,561.5C 616.059,568.599 607.559,572.433 597.5,573C 582.841,574.965 569.174,572.298 556.5,565C 548.038,558.575 543.371,550.075 542.5,539.5C 515.846,540.88 489.179,541.88 462.5,542.5C 466.18,571.849 481.847,591.849 509.5,602.5C 484.672,603.498 459.672,603.831 434.5,603.5C 434.832,540.331 434.499,477.331 433.5,414.5C 407.672,413.502 381.672,413.169 355.5,413.5C 355.5,404.5 355.5,395.5 355.5,386.5C 355.5,381.167 355.5,375.833 355.5,370.5C 345.833,370.5 336.167,370.5 326.5,370.5C 326.5,379.833 326.5,389.167 326.5,398.5C 326.5,426.5 326.5,454.5 326.5,482.5C 349.167,482.5 371.833,482.5 394.5,482.5C 394.5,500.5 394.5,518.5 394.5,536.5C 371.833,536.5 349.167,536.5 326.5,536.5C 326.5,590.833 326.5,645.167 326.5,699.5C 299.5,699.5 272.5,699.5 245.5,699.5C 245.5,645.167 245.5,590.833 245.5,536.5C 236.5,536.5 227.5,536.5 218.5,536.5C 217.503,556.993 217.169,577.66 217.5,598.5C 192.5,598.5 167.5,598.5 142.5,598.5C 142.83,591.8 142.497,585.134 141.5,578.5C 140.893,578.624 140.56,578.957 140.5,579.5C 115.555,600.398 86.888,608.232 54.5,603C 23.2829,596.784 5.44954,577.951 1,546.5C 0.500009,501.168 0.333342,455.835 0.5,410.5C 24.8333,410.5 49.1667,410.5 73.5,410.5C 73.0547,445.861 73.5547,481.195 75,516.5C 78.7315,532.216 88.7315,539.549 105,538.5C 118.28,539.127 130.447,535.794 141.5,528.5C 142.5,489.172 142.833,449.839 142.5,410.5C 167.833,410.5 193.167,410.5 218.5,410.5C 218.169,434.672 218.502,458.672 219.5,482.5C 228.167,482.5 236.833,482.5 245.5,482.5C 245.5,446.167 245.5,409.833 245.5,373.5C 244.229,352.542 252.229,336.042 269.5,324C 273.677,321.941 278.01,320.274 282.5,319C 306.831,318.5 331.164,318.333 355.5,318.5 Z"/></g>
<g><path style="opacity:1" fill="#9e9e9e" d="M 355.5,386.5 C 355.167,386.5 354.833,386.5 354.5,386.5C 354.5,381.5 354.5,376.5 354.5,371.5C 345.5,371.5 336.5,371.5 327.5,371.5C 327.827,380.682 327.493,389.682 326.5,398.5C 326.5,389.167 326.5,379.833 326.5,370.5C 336.167,370.5 345.833,370.5 355.5,370.5C 355.5,375.833 355.5,381.167 355.5,386.5 Z"/></g>
<g><path style="opacity:1" fill="#9e9e9e" d="M 434.5,379.5 C 435.494,389.653 435.828,399.986 435.5,410.5C 466.168,410.333 496.835,410.5 527.5,411C 526.956,411.717 526.289,412.217 525.5,412.5C 495.338,411.502 465.005,411.169 434.5,411.5C 434.5,400.833 434.5,390.167 434.5,379.5 Z"/></g>
<g><path style="opacity:1" fill="#a6a6a6" d="M 806.5,412.5 C 752.833,411.167 699.167,411.167 645.5,412.5C 644.711,412.217 644.044,411.717 643.5,411C 698.5,410.333 753.5,410.333 808.5,411C 807.956,411.717 807.289,412.217 806.5,412.5 Z"/></g>
<g><path style="opacity:1" fill="#a6a6a6" d="M 1021.5,412.5 C 1021.17,412.5 1020.83,412.5 1020.5,412.5C 983.5,411.167 946.5,411.167 909.5,412.5C 908.711,412.217 908.044,411.717 907.5,411C 926.5,410.833 945.5,410.667 964.5,410.5C 983.845,410.5 1002.85,411.167 1021.5,412.5 Z"/></g>
<g><path style="opacity:1" fill="#020202" d="M 645.5,412.5 C 699.167,411.167 752.833,411.167 806.5,412.5C 764.674,423.159 740.507,449.826 734,492.5C 728.249,538.144 744.416,573.31 782.5,598C 785.85,599.61 789.184,601.11 792.5,602.5C 747.833,603.833 703.167,603.833 658.5,602.5C 678.424,595.739 693.257,583.072 703,564.5C 711.9,540.594 706.4,520.761 686.5,505C 671.407,495.41 655.073,488.744 637.5,485C 613.248,479.927 588.914,475.26 564.5,471C 557.138,469.457 552.138,465.29 549.5,458.5C 552.431,449.422 558.765,444.588 568.5,444C 582.173,441.875 595.173,443.875 607.5,450C 613.117,454.738 617.117,460.572 619.5,467.5C 623.167,467.833 626.833,468.167 630.5,468.5C 651.158,467.455 671.825,466.622 692.5,466C 694.577,465.808 696.577,465.308 698.5,464.5C 692.088,435.755 674.421,418.421 645.5,412.5 Z"/></g>
<g><path style="opacity:1" fill="#010101" d="M 909.5,412.5 C 946.5,411.167 983.5,411.167 1020.5,412.5C 995.325,454.186 968.158,494.519 939,533.5C 937.989,534.337 936.822,534.67 935.5,534.5C 925.856,532.714 916.356,530.381 907,527.5C 903.515,539.305 897.348,549.472 888.5,558C 875.494,565.48 861.494,568.147 846.5,566C 829.08,563.245 817.913,553.412 813,536.5C 807.82,515.815 808.82,495.481 816,475.5C 826.171,459.829 840.671,452.162 859.5,452.5C 873.593,452.361 885.76,457.028 896,466.5C 898.945,471.414 902.112,476.081 905.5,480.5C 927.101,475.979 948.768,471.979 970.5,468.5C 959.769,439.438 939.436,420.772 909.5,412.5 Z"/></g>
<g><path style="opacity:1" fill="#000000" d="M 1265.5,411.5 C 1265.5,441.167 1265.5,470.833 1265.5,500.5C 1255.37,498.758 1245.37,499.258 1235.5,502C 1228.56,505.45 1222.9,510.283 1218.5,516.5C 1217.51,511.695 1217.18,506.695 1217.5,501.5C 1199.83,501.5 1182.17,501.5 1164.5,501.5C 1164.5,535.5 1164.5,569.5 1164.5,603.5C 1159.5,603.5 1154.5,603.5 1149.5,603.5C 1146.41,599.421 1144.58,594.754 1144,589.5C 1143.93,568.796 1143.26,548.13 1142,527.5C 1139.91,520.82 1136.41,514.987 1131.5,510C 1121.73,503.743 1111.06,500.076 1099.5,499C 1077.12,496.707 1054.78,497.041 1032.5,500C 1027.69,500.727 1023.02,501.894 1018.5,503.5C 1038.88,473.985 1058.88,443.651 1078.5,412.5C 1140.83,411.5 1203.16,411.167 1265.5,411.5 Z"/></g>
<g><path style="opacity:1" fill="#707070" d="M 354.5,386.5 C 354.833,386.5 355.167,386.5 355.5,386.5C 355.5,395.5 355.5,404.5 355.5,413.5C 381.672,413.169 407.672,413.502 433.5,414.5C 407.167,414.5 380.833,414.5 354.5,414.5C 354.5,405.167 354.5,395.833 354.5,386.5 Z"/></g>
<g><path style="opacity:1" fill="#cacaca" d="M 245.5,373.5 C 245.5,409.833 245.5,446.167 245.5,482.5C 236.833,482.5 228.167,482.5 219.5,482.5C 227.082,470.246 235.082,458.246 243.5,446.5C 244.167,422.003 244.833,397.67 245.5,373.5 Z"/></g>
<g><path style="opacity:1" fill="#939393" d="M 1218.5,516.5 C 1218.44,517.043 1218.11,517.376 1217.5,517.5C 1216.51,512.544 1216.17,507.544 1216.5,502.5C 1199.5,502.5 1182.5,502.5 1165.5,502.5C 1165.5,536.5 1165.5,570.5 1165.5,604.5C 1159.97,604.821 1154.64,604.488 1149.5,603.5C 1154.5,603.5 1159.5,603.5 1164.5,603.5C 1164.5,569.5 1164.5,535.5 1164.5,501.5C 1182.17,501.5 1199.83,501.5 1217.5,501.5C 1217.18,506.695 1217.51,511.695 1218.5,516.5 Z"/></g>
<g><path style="opacity:1" fill="#040404" d="M 1009.5,602.5 C 985.5,603.833 961.5,603.833 937.5,602.5C 958.123,579.235 977.79,555.235 996.5,530.5C 1012.52,531.751 1028.52,532.917 1044.5,534C 1046.83,529.667 1050.17,526.333 1054.5,524C 1064.92,521.473 1075.26,521.473 1085.5,524C 1089.49,526.819 1091.16,530.653 1090.5,535.5C 1067.69,540.36 1044.69,544.527 1021.5,548C 1012.77,549.701 1004.77,553.034 997.5,558C 988.646,567.762 987.146,578.596 993,590.5C 997.585,595.865 1003.09,599.865 1009.5,602.5 Z"/></g>
<g><path style="opacity:1" fill="#010101" d="M 1263.5,530.5 C 1264.5,554.661 1264.83,578.994 1264.5,603.5C 1250.17,603.5 1235.83,603.5 1221.5,603.5C 1221.5,589.5 1221.5,575.5 1221.5,561.5C 1222.41,534.744 1235.58,525.411 1261,533.5C 1262.04,532.627 1262.88,531.627 1263.5,530.5 Z"/></g>
<g><path style="opacity:1" fill="#040404" d="M 1089.5,555.5 C 1091.82,564.046 1089.82,571.546 1083.5,578C 1073.6,584.035 1062.93,586.035 1051.5,584C 1042.55,580.014 1041.22,574.347 1047.5,567C 1049.72,565.725 1052.05,564.725 1054.5,564C 1066.33,561.292 1078,558.458 1089.5,555.5 Z"/></g>
<g><path style="opacity:1" fill="#9c9c9c" d="M 140.5,579.5 C 140.56,578.957 140.893,578.624 141.5,578.5C 142.497,585.134 142.83,591.8 142.5,598.5C 142.5,598.833 142.5,599.167 142.5,599.5C 141.833,592.833 141.167,586.167 140.5,579.5 Z"/></g>
<g><path style="opacity:1" fill="#0c0c0c" d="M 1097.5,602.5 C 1089.83,603.833 1082.17,603.833 1074.5,602.5C 1080.93,600.407 1086.93,597.407 1092.5,593.5C 1094.72,596.144 1096.39,599.144 1097.5,602.5 Z"/></g>
<g><path style="opacity:1" fill="#585858" d="M 218.5,536.5 C 218.5,557.5 218.5,578.5 218.5,599.5C 205.833,599.5 193.167,599.5 180.5,599.5C 174.167,599.5 167.833,599.5 161.5,599.5C 155.167,599.5 148.833,599.5 142.5,599.5C 142.5,599.167 142.5,598.833 142.5,598.5C 167.5,598.5 192.5,598.5 217.5,598.5C 217.169,577.66 217.503,556.993 218.5,536.5 Z"/></g>
<g><path style="opacity:1" fill="#686868" d="M 433.5,414.5 C 434.499,477.331 434.832,540.331 434.5,603.5C 459.672,603.831 484.672,603.498 509.5,602.5C 510.756,602.461 511.756,602.961 512.5,604C 486.169,604.5 459.835,604.667 433.5,604.5C 433.5,541.167 433.5,477.833 433.5,414.5 Z"/></g>
<g><path style="opacity:1" fill="#595959" d="M 658.5,602.5 C 703.167,603.833 747.833,603.833 792.5,602.5C 793.756,602.461 794.756,602.961 795.5,604C 748.833,604.667 702.167,604.667 655.5,604C 656.244,602.961 657.244,602.461 658.5,602.5 Z"/></g>
<g><path style="opacity:1" fill="#595959" d="M 937.5,602.5 C 961.5,603.833 985.5,603.833 1009.5,602.5C 1010.47,602.987 1011.47,603.487 1012.5,604C 987.169,604.5 961.836,604.667 936.5,604.5C 936.328,603.508 936.662,602.842 937.5,602.5 Z"/></g>
<g><path style="opacity:1" fill="#5b5b5b" d="M 1074.5,602.5 C 1082.17,603.833 1089.83,603.833 1097.5,602.5C 1098.04,602.56 1098.38,602.893 1098.5,603.5C 1089.18,604.665 1079.85,604.832 1070.5,604C 1071.74,603.209 1073.08,602.709 1074.5,602.5 Z"/></g>
<g><path style="opacity:1" fill="#4e4e4e" d="M 1221.5,561.5 C 1221.5,575.5 1221.5,589.5 1221.5,603.5C 1235.83,603.5 1250.17,603.5 1264.5,603.5C 1264.83,578.994 1264.5,554.661 1263.5,530.5C 1263.78,529.711 1264.28,529.044 1265,528.5C 1265.5,553.831 1265.67,579.164 1265.5,604.5C 1250.5,604.5 1235.5,604.5 1220.5,604.5C 1220.17,589.99 1220.5,575.657 1221.5,561.5 Z"/></g>
</svg>
